<svg width="340" height="72" viewBox="0 0 340 72" fill="none" xmlns="http://www.w3.org/2000/svg" role="img" aria-labelledby="title desc">
  <title id="title">Accelerated Learning Center logo</title>
  <desc id="desc">ALC monogram with the text Accelerated Learning Center</desc>
  <defs>
    <linearGradient id="alcGreen" x1="6" y1="66" x2="66" y2="6" gradientUnits="userSpaceOnUse">
      <stop stop-color="#0F7A53"/>
      <stop offset="1" stop-color="#1E9A6E"/>
    </linearGradient>
    <linearGradient id="alcBlue" x1="46" y1="58" x2="82" y2="20" gradientUnits="userSpaceOnUse">
      <stop stop-color="#2E7CB8"/>
      <stop offset="1" stop-color="#4F95CA"/>
    </linearGradient>
  </defs>

  <rect x="4" y="4" width="64" height="64" rx="16" fill="#F2F7F2"/>
  <rect x="4" y="4" width="64" height="64" rx="16" stroke="#C6D6CB"/>
  <path d="M14 50L24 25L34 50H28L24 39L20 50H14Z" fill="url(#alcGreen)"/>
  <rect x="36" y="23" width="7" height="27" rx="3.5" fill="url(#alcGreen)"/>
  <path d="M61 49C59 50.4 56.4 51.2 53.6 51.2C46.9 51.2 42 46.6 42 39.8C42 33.2 47 28.4 53.8 28.4C56.5 28.4 58.9 29.1 60.8 30.4L57.8 34.5C56.7 33.7 55.4 33.2 53.9 33.2C49.9 33.2 47 35.9 47 39.8C47 43.8 49.8 46.4 53.8 46.4C55.5 46.4 57 45.8 58.2 44.8L61 49Z" fill="url(#alcBlue)"/>

  <text x="82" y="33" fill="#0E3B2B" font-family="Poppins, Segoe UI, Arial, sans-serif" font-size="26" font-weight="700" letter-spacing="0.4">ALC</text>
  <text x="83" y="53" fill="#38574A" font-family="Poppins, Segoe UI, Arial, sans-serif" font-size="13" font-weight="500">Accelerated Learning Center</text>
</svg>
