<svg width="52" height="52" viewBox="0 0 52 52" fill="none" xmlns="http://www.w3.org/2000/svg" role="img" aria-labelledby="title desc">
  <title id="title">ALC logo mark</title>
  <desc id="desc">Monogram icon for Accelerated Learning Center</desc>
  <defs>
    <linearGradient id="markGreen" x1="6" y1="46" x2="40" y2="10" gradientUnits="userSpaceOnUse">
      <stop stop-color="#0F7A53"/>
      <stop offset="1" stop-color="#1E9A6E"/>
    </linearGradient>
    <linearGradient id="markBlue" x1="30" y1="42" x2="48" y2="18" gradientUnits="userSpaceOnUse">
      <stop stop-color="#2E7CB8"/>
      <stop offset="1" stop-color="#4F95CA"/>
    </linearGradient>
  </defs>

  <rect x="2.5" y="2.5" width="47" height="47" rx="12" fill="#F2F7F2"/>
  <rect x="2.5" y="2.5" width="47" height="47" rx="12" stroke="#C6D6CB"/>
  <path d="M9 38L16 19L23 38H18.8L16 30.1L13.2 38H9Z" fill="url(#markGreen)"/>
  <rect x="24.5" y="18" width="5.2" height="20" rx="2.6" fill="url(#markGreen)"/>
  <path d="M44.4 37.3C42.9 38.3 41.1 38.9 39 38.9C34.2 38.9 30.7 35.6 30.7 30.7C30.7 25.9 34.3 22.4 39.2 22.4C41.1 22.4 42.8 22.9 44.2 23.8L42.1 26.8C41.3 26.2 40.3 25.9 39.3 25.9C36.4 25.9 34.3 27.8 34.3 30.7C34.3 33.6 36.3 35.5 39.2 35.5C40.4 35.5 41.5 35.1 42.4 34.3L44.4 37.3Z" fill="url(#markBlue)"/>
</svg>
